<?xml version="1.0" encoding="UTF-8" standalone="no"?> <svg width="48" height="48" viewBox="0 0 48 48" fill="none" xmlns="http://www.w3.org/2000/svg">
<path d="M37 41V18C37 17.7348 37.1054 17.4804 37.2929 17.2929C37.4804 17.1054 37.7348 17 38 17H43C43.2652 17 43.5196 17.1054 43.7071 17.2929C43.8946 17.4804 44 17.7348 44 18V41H37Z" fill="#FAC100"/>
<path d="M26 41V25C26 24.7348 26.1054 24.4804 26.2929 24.2929C26.4804 24.1054 26.7348 24 27 24H32C32.2652 24 32.5196 24.1054 32.7071 24.2929C32.8946 24.4804 33 24.7348 33 25V41H26Z" fill="#FD3730"/>
<path d="M15 41V22C15 21.7348 15.1054 21.4804 15.2929 21.2929C15.4804 21.1054 15.7348 21 16 21H21C21.2652 21 21.5196 21.1054 21.7071 21.2929C21.8946 21.4804 22 21.7348 22 22V41H15Z" fill="#00CF66"/>
<path d="M4 41V28C4 27.7348 4.10536 27.4804 4.29289 27.2929C4.48043 27.1054 4.73478 27 5 27H10C10.2652 27 10.5196 27.1054 10.7071 27.2929C10.8946 27.4804 11 27.7348 11 28V41H4Z" fill="#009AE0"/>
<path d="M45 40V18C45 17.4696 44.7893 16.9609 44.4142 16.5858C44.0391 16.2107 43.5304 16 43 16H38C37.4696 16 36.9609 16.2107 36.5858 16.5858C36.2107 16.9609 36 17.4696 36 18V40H34V25C34 24.4696 33.7893 23.9609 33.4142 23.5858C33.0391 23.2107 32.5304 23 32 23H27C26.4696 23 25.9609 23.2107 25.5858 23.5858C25.2107 23.9609 25 24.4696 25 25V40H23V22C23 21.4696 22.7893 20.9609 22.4142 20.5858C22.0391 20.2107 21.5304 20 21 20H16C15.4696 20 14.9609 20.2107 14.5858 20.5858C14.2107 20.9609 14 21.4696 14 22V40H12V28C12 27.4696 11.7893 26.9609 11.4142 26.5858C11.0391 26.2107 10.5304 26 10 26H5C4.46957 26 3.96086 26.2107 3.58579 26.5858C3.21071 26.9609 3 27.4696 3 28V40C2.73478 40 2.48043 40.1054 2.29289 40.2929C2.10536 40.4804 2 40.7348 2 41C2 41.2652 2.10536 41.5196 2.29289 41.7071C2.48043 41.8946 2.73478 42 3 42H45C45.2652 42 45.5196 41.8946 45.7071 41.7071C45.8946 41.5196 46 41.2652 46 41C46 40.7348 45.8946 40.4804 45.7071 40.2929C45.5196 40.1054 45.2652 40 45 40ZM38 18H43V40H38V18ZM27 25H32V40H27V25ZM16 22H21V40H16V22ZM5 28H10V40H5V28Z" fill="black"/>
<path d="M3.00017 23.0002C3.18134 23.0003 3.35907 22.9508 3.51417 22.8572L18.0632 14.1272L28.5862 18.9102C28.7432 18.9817 28.9161 19.0114 29.088 18.9963C29.2599 18.9813 29.425 18.922 29.5672 18.8242L43.5362 9.2002L43.0362 11.6842C42.9841 11.9442 43.0374 12.2143 43.1844 12.4351C43.3314 12.6558 43.5601 12.8091 43.8202 12.8612C43.8861 12.874 43.953 12.8804 44.0202 12.8802C44.2505 12.88 44.4738 12.8003 44.6521 12.6545C44.8305 12.5088 44.9531 12.3059 44.9992 12.0802L45.9792 7.1802C46.0323 6.92043 45.9801 6.65019 45.834 6.42891C45.6879 6.20763 45.4599 6.05343 45.2002 6.0002L40.3002 5.0202C40.0403 4.96716 39.7699 5.01954 39.5486 5.16582C39.3273 5.3121 39.1732 5.54029 39.1202 5.8002C39.0671 6.06012 39.1195 6.33045 39.2658 6.55175C39.4121 6.77304 39.6403 6.92716 39.9002 6.9802L42.4852 7.4982L28.9002 16.8552L18.4142 12.0902C18.2666 12.0231 18.105 11.9928 17.9431 12.0021C17.7813 12.0113 17.6241 12.0597 17.4852 12.1432L2.48517 21.1432C2.29784 21.2558 2.15258 21.4268 2.07162 21.6298C1.99065 21.8328 1.97844 22.0568 2.03686 22.2674C2.09527 22.4781 2.2211 22.6638 2.39507 22.7961C2.56904 22.9284 2.78159 23.0001 3.00017 23.0002V23.0002Z" fill="black"/>
</svg>
