<?xml version="1.0" encoding="UTF-8" standalone="no"?> <svg xmlns="http://www.w3.org/2000/svg" viewBox="0 0 64 64"><title>Money, hand, dollar, cash, economy, </title><g id="Flat"><path d="M9,28.435V18a3,3,0,0,0-3-3H6a3,3,0,0,0-3,3V40.459a8.007,8.007,0,0,0,.572,2.972L8.714,56.285A4,4,0,0,1,9,57.77V61H20l-.009-3.736a8.542,8.542,0,0,1,1.662-5.3c1.568-2.007,1.767-5.352.282-8.451a9.257,9.257,0,0,0-4.5-4.557,3.862,3.862,0,0,1-1.923-1.9l-3.2-6.679a3,3,0,0,0-4.146-1.335,3.114,3.114,0,0,0-1.192,4.081l3.851,8.034" style="fill:#f7aa6b"/><path d="M3.054,18V40.46a7.925,7.925,0,0,0,.57,2.97l5.14,12.85a4.032,4.032,0,0,1,.29,1.49V61h8.99V59.26a8.584,8.584,0,0,1,1.66-5.29c1.57-2.01,1.77-5.36.29-8.45a9.274,9.274,0,0,0-4.5-4.56,3.86,3.86,0,0,1-1.92-1.9l-3.21-6.68a2.979,2.979,0,0,0-3.27-1.64l-.04-.3V20a3,3,0,0,0-3-3,3.1,3.1,0,0,0-.87.13A3.1,3.1,0,0,0,3.054,18Z" style="fill:#f9b480"/><path d="M10.829,42.164a1,1,0,0,1-.9-.568L6.076,33.561A4.088,4.088,0,0,1,7.69,28.17a3.979,3.979,0,0,1,.624-.275,1,1,0,0,1,.651,1.891,2.121,2.121,0,0,0-.318.14A2.119,2.119,0,0,0,7.879,32.7l3.85,8.034a1,1,0,0,1-.9,1.433Z" style="fill:#ed9451"/><path d="M61,18V40.46a7.925,7.925,0,0,1-.57,2.97L55.29,56.28A4.032,4.032,0,0,0,55,57.77V61H44l.01-3.74a8.584,8.584,0,0,0-1.66-5.29c-1.57-2.01-1.77-5.36-.29-8.45a9.274,9.274,0,0,1,4.5-4.56,3.86,3.86,0,0,0,1.92-1.9l3.21-6.68a2.974,2.974,0,0,1,3.27-1.64l.04-.3V18a3,3,0,0,1,5.12-2.12,3.058,3.058,0,0,1,.75,1.25A3.1,3.1,0,0,1,61,18Z" style="fill:#f7aa6b"/><path d="M61,18V40.46a7.925,7.925,0,0,1-.57,2.97L55.29,56.28A4.032,4.032,0,0,0,55,57.77V61H46.01V59.26a8.584,8.584,0,0,0-1.66-5.29c-1.57-2.01-1.77-5.36-.29-8.45a9.274,9.274,0,0,1,4.5-4.56,3.86,3.86,0,0,0,1.92-1.9l3.21-6.68a2.979,2.979,0,0,1,3.27-1.64l.04-.3V20a3,3,0,0,1,3-3,3.1,3.1,0,0,1,.87.13A3.1,3.1,0,0,1,61,18Z" style="fill:#f9b480"/><path d="M53.171,42.164a1,1,0,0,1-.9-1.433L56.121,32.7a2.118,2.118,0,0,0-.769-2.771c-.053-.029-.108-.056-.164-.081A1,1,0,1,1,56,28.018c.1.046.206.1.308.151a4.089,4.089,0,0,1,1.615,5.392L54.073,41.6A1,1,0,0,1,53.171,42.164Z" style="fill:#ed9451"/><rect x="13" y="3" width="38" height="20" style="fill:#02966c"/><path d="M37,3V6A14,14,0,0,1,23,20H13V3Z" style="fill:#0fa375"/><path d="M32,18a3,3,0,0,1-3-3,1,1,0,0,1,2,0,1,1,0,1,0,1-1,3,3,0,1,1,3-3,1,1,0,0,1-2,0,1,1,0,1,0-1,1,3,3,0,0,1,0,6Z" style="fill:#39d8a3"/><path d="M32,10a1,1,0,0,1-1-1V7a1,1,0,0,1,2,0V9A1,1,0,0,1,32,10Z" style="fill:#39d8a3"/><path d="M32,20a1,1,0,0,1-1-1V17a1,1,0,0,1,2,0v2A1,1,0,0,1,32,20Z" style="fill:#39d8a3"/><path d="M27,20H17a1,1,0,0,1-1-1V7a1,1,0,0,1,1-1h9.968V8H18V18h9Z" style="fill:#39d8a3"/><path d="M47,20H37V18h9V8H37V6H47a1,1,0,0,1,1,1V19A1,1,0,0,1,47,20Z" style="fill:#39d8a3"/><path d="M26,14H24a1,1,0,0,1,0-2h2a1,1,0,0,1,0,2Z" style="fill:#39d8a3"/><path d="M40,14H38a1,1,0,0,1,0-2h2a1,1,0,0,1,0,2Z" style="fill:#39d8a3"/><rect x="15" y="23" width="34" height="4" style="fill:#02895f"/><rect x="17" y="27" width="30" height="4" style="fill:#02966c"/><rect x="15" y="23" width="34" height="1" style="fill:#037c54"/><rect x="17" y="27" width="30" height="1" style="fill:#037c54"/></g></svg>